<svg id="svg" version="1.1" xmlns="http://www.w3.org/2000/svg" xmlns:xlink="http://www.w3.org/1999/xlink" width="400" height="357.3085846867749" viewBox="0, 0, 400,357.3085846867749"><g id="svgg"><path id="path0" d="M286.685 91.510 L 286.685 96.515 313.673 96.515 L 340.661 96.515 340.661 91.510 L 340.661 86.506 313.673 86.506 L 286.685 86.506 286.685 91.510 M56.720 87.457 C 56.379 87.797,56.430 96.599,56.775 97.143 C 57.001 97.498,62.583 97.573,83.490 97.500 L 109.920 97.408 109.920 92.404 L 109.920 87.399 83.440 87.308 C 68.876 87.257,56.852 87.324,56.720 87.457 M167.650 126.542 L 167.650 163.360 171.403 163.360 L 175.156 163.360 175.156 132.082 C 175.156 114.879,175.277 100.809,175.424 100.815 C 175.572 100.821,177.333 103.274,179.339 106.266 C 181.344 109.259,186.199 116.452,190.127 122.252 C 196.563 131.756,212.136 154.817,216.254 160.943 L 217.873 163.352 222.609 163.356 L 227.346 163.360 227.346 126.542 L 227.346 89.723 223.592 89.723 L 219.839 89.723 219.839 120.643 C 219.839 137.650,219.718 151.560,219.571 151.556 C 219.424 151.552,218.470 150.305,217.452 148.786 C 216.434 147.266,214.498 144.415,213.149 142.449 C 211.800 140.483,208.457 135.576,205.720 131.546 C 202.983 127.516,196.233 117.622,190.720 109.559 C 185.207 101.497,179.905 93.736,178.936 92.312 L 177.175 89.723 172.412 89.723 L 167.650 89.723 167.650 126.542 M26.095 127.614 L 26.095 132.618 68.097 132.618 L 110.098 132.618 110.098 127.614 L 110.098 122.609 68.097 122.609 L 26.095 122.609 26.095 127.614 M286.685 127.614 L 286.685 132.621 328.954 132.531 L 371.224 132.440 371.224 127.614 L 371.224 122.788 328.954 122.697 L 286.685 122.607 286.685 127.614 M56.479 163.003 L 56.479 168.007 83.289 168.007 L 110.098 168.007 110.098 163.003 L 110.098 157.998 83.289 157.998 L 56.479 157.998 56.479 163.003 M286.685 163.003 L 286.685 168.007 313.137 168.007 L 339.589 168.007 339.589 163.003 L 339.589 157.998 313.137 157.998 L 286.685 157.998 286.685 163.003 M321.180 240.379 C 302.844 244.259,291.234 258.956,291.234 278.284 C 291.234 322.300,353.000 332.398,366.222 290.543 C 375.432 261.388,350.917 234.085,321.180 240.379 M30.742 278.284 L 30.742 315.282 34.495 315.282 L 38.248 315.282 38.248 284.004 C 38.248 266.801,38.369 252.731,38.517 252.737 C 38.846 252.751,38.726 252.581,45.216 262.198 C 48.135 266.524,52.159 272.475,54.157 275.424 C 62.764 288.123,64.892 291.268,70.608 299.732 C 73.928 304.647,77.630 310.116,78.834 311.886 L 81.025 315.103 85.732 315.203 L 90.438 315.302 90.438 278.282 L 90.438 241.262 86.774 241.364 L 83.110 241.466 82.931 272.565 L 82.752 303.664 80.399 300.268 C 79.104 298.400,76.841 295.103,75.370 292.940 C 70.032 285.094,66.319 279.649,64.156 276.497 C 62.941 274.727,60.853 271.671,59.515 269.705 C 58.176 267.739,55.749 264.186,54.120 261.809 C 47.618 252.323,44.266 247.400,42.288 244.430 L 40.214 241.319 35.478 241.303 L 30.742 241.287 30.742 278.284 M268.266 241.721 C 268.170 241.974,268.132 258.588,268.183 278.642 L 268.275 315.103 272.029 315.103 L 275.782 315.103 275.782 278.284 L 275.782 241.466 272.112 241.364 C 269.375 241.288,268.397 241.379,268.266 241.721 M335.135 246.818 C 367.261 252.029,368.213 302.672,336.313 309.446 C 314.055 314.172,295.643 295.251,299.873 272.000 C 303.099 254.269,317.531 243.963,335.135 246.818 M125.063 265.752 C 107.574 269.586,100.533 293.029,112.443 307.770 C 121.517 319.001,140.781 319.324,150.657 308.410 C 153.058 305.757,153.119 306.214,150.050 303.809 L 147.499 301.809 144.974 304.349 C 134.020 315.366,115.480 309.330,114.320 294.370 L 114.209 292.940 134.227 292.761 L 154.245 292.583 154.210 288.472 C 154.072 272.378,141.069 262.243,125.063 265.752 M247.803 265.791 C 244.261 266.745,240.331 269.510,238.579 272.280 C 237.260 274.367,236.998 274.223,236.993 271.403 C 236.991 270.076,236.890 268.387,236.768 267.650 L 236.546 266.309 233.143 266.309 L 229.739 266.309 229.972 270.118 C 230.101 272.213,230.206 283.232,230.206 294.604 L 230.206 315.282 233.744 315.282 L 237.283 315.282 237.459 300.536 C 237.651 284.527,237.725 283.839,239.726 279.625 C 242.317 274.167,245.629 272.207,252.263 272.207 C 257.245 272.207,256.777 272.574,257.213 268.325 C 257.408 266.419,257.355 265.802,256.972 265.560 C 256.199 265.070,249.890 265.229,247.803 265.791 M169.080 283.074 C 169.080 303.143,169.289 304.700,172.671 309.711 C 178.852 318.868,196.678 318.376,203.061 308.873 L 204.021 307.443 204.241 308.771 C 204.362 309.501,204.462 311.010,204.464 312.124 C 204.471 315.316,204.429 315.281,208.171 315.282 L 211.439 315.282 211.335 291.242 C 211.278 278.021,211.162 267.002,211.078 266.756 C 210.970 266.441,209.932 266.309,207.561 266.309 L 204.197 266.309 204.016 281.055 C 203.821 296.970,203.718 297.877,201.596 302.261 C 197.076 311.598,183.462 313.083,178.591 304.770 C 176.613 301.395,176.471 300.043,176.252 282.574 L 176.050 266.488 172.565 266.386 L 169.080 266.283 169.080 283.074 M135.763 271.855 C 141.153 273.126,145.053 277.374,146.431 283.476 C 147.315 287.390,148.874 287.042,130.485 287.042 L 114.388 287.042 114.388 286.026 C 114.388 277.005,125.726 269.489,135.763 271.855 " stroke="none" fill="#050505" fill-rule="evenodd"></path><path id="path1" d="M0.000 178.731 L 0.000 357.462 200.000 357.462 L 400.000 357.462 400.000 178.731 L 400.000 0.000 200.000 0.000 L 0.000 0.000 0.000 178.731 M176.229 47.185 L 176.229 50.760 146.559 50.760 L 116.890 50.760 116.890 128.150 L 116.890 205.541 146.559 205.541 L 176.229 205.541 176.229 209.115 L 176.229 212.690 143.166 212.690 L 110.104 212.690 110.012 190.438 L 109.920 168.186 83.189 168.094 L 56.459 168.003 56.559 162.911 L 56.658 157.819 83.383 157.728 L 110.108 157.636 110.014 145.395 L 109.920 133.155 68.007 133.064 L 26.095 132.973 26.095 127.793 L 26.095 122.612 68.007 122.522 L 109.920 122.431 109.920 110.098 L 109.920 97.766 83.289 97.587 L 56.658 97.408 56.658 92.404 L 56.658 87.399 83.378 87.308 L 110.098 87.216 110.098 65.413 L 110.098 43.610 143.164 43.610 L 176.229 43.610 176.229 47.185 M286.685 64.877 L 286.685 86.144 313.584 86.235 L 340.483 86.327 340.582 91.419 L 340.681 96.510 313.772 96.602 L 286.863 96.693 286.769 109.651 L 286.676 122.609 329.049 122.609 L 371.423 122.609 371.323 127.703 L 371.224 132.797 328.954 132.888 L 286.685 132.979 286.685 145.310 L 286.685 157.641 313.137 157.641 L 339.589 157.641 339.589 162.822 L 339.589 168.003 313.226 168.094 L 286.863 168.186 286.771 190.438 L 286.679 212.690 253.617 212.690 L 220.554 212.690 220.554 209.115 L 220.554 205.541 250.223 205.541 L 279.893 205.541 279.893 128.150 L 279.893 50.760 250.223 50.760 L 220.554 50.760 220.554 47.185 L 220.554 43.610 253.619 43.610 L 286.685 43.610 286.685 64.877 M179.617 93.202 C 182.198 96.963,184.316 100.065,189.812 108.132 C 191.554 110.688,193.995 114.272,195.238 116.096 C 196.481 117.920,198.543 120.931,199.821 122.788 C 201.099 124.645,203.162 127.657,204.405 129.481 C 210.968 139.113,213.201 142.393,215.256 145.421 C 216.499 147.252,217.998 149.420,218.588 150.237 L 219.660 151.723 219.839 120.634 L 220.018 89.544 223.771 89.544 L 227.525 89.544 227.525 126.363 L 227.525 163.181 222.675 163.280 L 217.825 163.379 214.387 158.276 C 212.496 155.469,208.882 150.116,206.355 146.381 C 203.829 142.645,198.884 135.326,195.367 130.116 C 191.851 124.906,187.337 118.231,185.336 115.282 C 183.336 112.332,180.325 107.878,178.645 105.383 C 176.965 102.889,175.492 100.945,175.373 101.064 C 175.254 101.183,175.156 115.249,175.156 132.321 L 175.156 163.360 171.224 163.360 L 167.292 163.360 167.292 126.601 C 167.292 106.384,167.404 89.730,167.540 89.594 C 167.677 89.457,169.885 89.390,172.448 89.445 L 177.107 89.544 179.617 93.202 M339.294 240.531 C 374.908 249.378,378.568 300.797,344.546 314.304 C 316.720 325.350,288.224 303.958,291.258 274.299 C 293.171 255.593,304.835 243.221,323.861 239.721 C 326.357 239.262,336.283 239.782,339.294 240.531 M41.607 243.347 C 43.573 246.243,63.905 276.050,67.145 280.786 C 72.101 288.030,74.209 291.121,77.752 296.336 C 82.342 303.093,82.350 303.103,82.663 303.117 C 82.811 303.123,82.931 289.208,82.931 272.195 L 82.931 241.263 86.774 241.364 L 90.617 241.466 90.617 278.284 L 90.617 315.103 85.791 315.194 L 80.965 315.286 78.045 310.905 C 76.438 308.495,72.894 303.226,70.168 299.196 C 60.779 285.313,53.347 274.336,48.992 267.918 C 46.591 264.379,43.312 259.530,41.705 257.142 C 40.099 254.754,38.664 252.873,38.517 252.963 C 38.369 253.052,38.248 267.116,38.248 284.215 L 38.248 315.306 34.406 315.204 L 30.563 315.103 30.471 278.642 C 30.420 258.588,30.455 241.979,30.549 241.734 C 30.674 241.407,31.995 241.288,35.467 241.291 L 40.214 241.296 41.607 243.347 M275.873 278.374 L 275.964 315.282 272.030 315.282 L 268.097 315.282 268.097 278.272 L 268.097 241.263 271.939 241.364 L 275.782 241.466 275.873 278.374 M325.290 246.685 C 294.526 250.143,289.677 297.248,318.951 308.266 C 325.050 310.562,334.128 310.555,340.250 308.251 C 369.735 297.153,364.526 250.145,333.427 246.677 C 329.601 246.251,329.155 246.251,325.290 246.685 M137.087 265.655 C 147.339 267.507,154.424 277.208,154.424 289.394 L 154.424 292.755 134.316 292.848 L 114.209 292.940 114.322 294.191 C 115.736 309.841,136.048 315.643,145.915 303.217 C 146.500 302.480,147.032 301.823,147.097 301.757 C 147.300 301.553,152.636 305.696,152.636 306.057 C 152.636 307.875,144.797 313.660,140.458 315.044 C 122.704 320.710,106.443 309.029,106.452 290.617 C 106.460 276.833,115.128 266.963,128.865 265.095 C 130.314 264.898,134.462 265.181,137.087 265.655 M255.868 265.207 C 256.711 265.370,257.463 265.566,257.539 265.642 C 257.640 265.743,256.789 272.207,256.675 272.207 C 256.666 272.207,254.687 272.207,252.279 272.207 C 245.757 272.207,242.263 274.292,239.690 279.716 C 237.997 283.285,237.953 283.733,237.739 299.732 L 237.534 315.103 233.870 315.205 L 230.206 315.307 230.204 295.902 C 230.204 285.229,230.098 274.205,229.970 271.403 L 229.737 266.309 233.147 266.309 C 237.106 266.309,236.980 266.175,236.998 270.420 C 237.009 273.105,237.449 274.494,237.869 273.172 C 239.378 268.415,249.437 263.964,255.868 265.207 M176.229 280.918 C 176.229 296.843,176.508 300.072,178.211 303.797 C 182.342 312.835,196.458 312.099,201.344 302.592 C 203.489 298.418,203.526 298.095,203.737 281.680 L 203.932 266.488 207.596 266.386 L 211.260 266.284 211.262 286.225 C 211.262 297.193,211.368 308.217,211.495 310.724 L 211.728 315.282 208.266 315.282 C 205.808 315.282,204.763 315.152,204.664 314.835 C 204.588 314.589,204.392 312.899,204.229 311.080 L 203.932 307.771 202.458 309.683 C 196.097 317.934,180.672 318.800,173.916 311.286 C 172.040 309.199,170.249 305.661,169.515 302.592 C 168.992 300.402,168.393 268.039,168.854 266.838 C 169.015 266.420,169.807 266.309,172.643 266.309 L 176.229 266.309 176.229 280.918 M127.870 271.685 C 123.612 272.401,118.682 276.013,116.395 280.092 C 115.296 282.053,114.225 285.745,114.528 286.533 C 114.766 287.155,146.352 287.310,146.734 286.691 C 147.140 286.035,146.158 281.866,145.064 279.600 C 142.066 273.390,135.556 270.393,127.870 271.685 " stroke="none" fill="#fbfbfb" fill-rule="evenodd"></path><path id="path2" d="M110.089 65.505 C 110.084 77.547,110.084 97.574,110.089 110.009 L 110.098 132.618 68.007 132.706 L 25.916 132.793 67.918 132.974 L 109.920 133.155 110.014 145.395 L 110.108 157.636 83.383 157.730 L 56.658 157.824 83.394 157.911 L 110.131 157.998 110.097 163.092 C 110.079 165.894,110.071 178.199,110.081 190.438 L 110.098 212.690 143.164 212.690 L 176.229 212.690 176.229 209.115 L 176.229 205.541 146.559 205.541 L 116.890 205.541 116.890 128.150 L 116.890 50.760 146.559 50.760 L 176.229 50.760 176.229 47.185 L 176.229 43.610 143.164 43.610 L 110.098 43.610 110.089 65.505 M220.554 47.185 L 220.554 50.760 250.223 50.760 L 279.893 50.760 279.893 128.150 L 279.893 205.541 250.223 205.541 L 220.554 205.541 220.554 209.115 L 220.554 212.690 253.619 212.690 L 286.685 212.690 286.702 190.438 C 286.711 178.199,286.704 165.895,286.686 163.094 L 286.652 158.003 313.210 157.909 L 339.768 157.815 313.226 157.728 L 286.685 157.641 286.685 145.308 L 286.685 132.976 328.844 132.976 C 352.032 132.976,371.078 132.855,371.169 132.708 C 371.260 132.560,352.288 132.481,329.008 132.532 L 286.681 132.624 286.690 109.567 L 286.699 86.510 313.591 86.416 L 340.483 86.322 313.584 86.235 L 286.685 86.148 286.685 64.879 L 286.685 43.610 253.619 43.610 L 220.554 43.610 220.554 47.185 M167.457 89.812 C 167.363 90.058,167.329 106.747,167.381 126.899 L 167.474 163.539 167.562 126.641 L 167.650 89.744 172.386 89.633 L 177.122 89.522 172.375 89.444 C 168.847 89.386,167.584 89.480,167.457 89.812 M223.680 89.625 L 227.342 89.748 227.436 126.286 L 227.530 162.824 227.527 126.184 L 227.525 89.544 223.771 89.524 L 220.018 89.503 223.680 89.625 M30.556 278.284 C 30.556 298.534,30.600 306.766,30.652 296.577 C 30.705 286.388,30.705 269.819,30.652 259.758 C 30.600 249.697,30.556 258.034,30.556 278.284 M90.610 278.284 C 90.610 298.534,90.653 306.766,90.706 296.577 C 90.759 286.388,90.759 269.819,90.706 259.758 C 90.653 249.697,90.610 258.034,90.610 278.284 M130.384 265.132 C 130.827 265.217,131.550 265.217,131.993 265.132 C 132.435 265.046,132.073 264.977,131.189 264.977 C 130.304 264.977,129.942 265.046,130.384 265.132 M252.462 265.136 C 253.006 265.218,253.810 265.216,254.250 265.131 C 254.689 265.046,254.245 264.979,253.262 264.982 C 252.279 264.984,251.919 265.054,252.462 265.136 M168.886 281.680 C 168.886 290.036,168.933 293.454,168.990 289.276 C 169.047 285.098,169.047 278.262,168.990 274.084 C 168.933 269.906,168.886 273.324,168.886 281.680 M203.914 278.999 C 203.914 285.880,203.962 288.645,204.021 285.142 C 204.080 281.640,204.079 276.010,204.021 272.631 C 203.962 269.252,203.914 272.118,203.914 278.999 M146.917 270.711 C 146.917 270.772,147.440 271.295,148.079 271.872 L 149.240 272.922 148.190 271.761 C 147.212 270.678,146.917 270.434,146.917 270.711 M367.919 276.139 C 367.923 276.926,367.996 277.205,368.081 276.761 C 368.167 276.316,368.163 275.673,368.074 275.331 C 367.985 274.989,367.915 275.353,367.919 276.139 M359.690 279.178 C 359.690 279.866,359.763 280.147,359.853 279.803 C 359.943 279.459,359.943 278.896,359.853 278.552 C 359.763 278.208,359.690 278.490,359.690 279.178 M367.919 280.429 C 367.923 281.215,367.996 281.495,368.081 281.050 C 368.167 280.606,368.163 279.962,368.074 279.620 C 367.985 279.279,367.915 279.643,367.919 280.429 M237.516 302.055 C 237.516 309.231,237.564 312.167,237.622 308.579 C 237.681 304.991,237.681 299.120,237.622 295.532 C 237.564 291.944,237.516 294.879,237.516 302.055 M350.294 301.966 L 349.062 303.307 350.402 302.075 C 351.650 300.928,351.907 300.626,351.634 300.626 C 351.574 300.626,350.971 301.229,350.294 301.966 M131.283 310.176 C 131.826 310.258,132.630 310.256,133.070 310.171 C 133.510 310.086,133.065 310.019,132.082 310.022 C 131.099 310.024,130.739 310.094,131.283 310.176 " stroke="none" fill="#fcc404" fill-rule="evenodd"></path></g></svg>